<?xml version="1.0" standalone="no"?>
<!DOCTYPE svg PUBLIC "-//W3C//DTD SVG 20010904//EN"
 "http://www.w3.org/TR/2001/REC-SVG-20010904/DTD/svg10.dtd">
<svg version="1.0" xmlns="http://www.w3.org/2000/svg"
 width="700.000000pt" height="700.000000pt" viewBox="0 0 700.000000 700.000000"
 preserveAspectRatio="xMidYMid meet">
<metadata>
Created by potrace 1.11, written by Peter Selinger 2001-2013
</metadata>
<g transform="translate(0.000000,700.000000) scale(0.100000,-0.100000)"
fill="#000000" stroke="none">
<path d="M0 3500 l0 -3500 3500 0 3500 0 0 3500 0 3500 -3500 0 -3500 0 0
-3500z m6730 0 l0 -3230 -3230 0 -3230 0 0 3230 0 3230 3230 0 3230 0 0 -3230z"/>
<path d="M3918 4548 l-3 -1863 -22 -78 c-54 -189 -160 -320 -324 -401 -132
-64 -222 -80 -409 -73 -217 8 -366 54 -479 146 l-55 44 -74 -79 c-41 -43 -290
-297 -552 -564 l-478 -485 62 -54 c272 -236 715 -421 1210 -506 275 -47 403
-51 686 -24 556 54 1076 284 1420 629 272 271 429 576 512 990 l23 115 3 2033
2 2032 -760 0 -759 0 -3 -1862z"/>
</g>
</svg>
